<svg xmlns="http://www.w3.org/2000/svg" viewBox="0 0 841.9 595.3">

    <symbol id='icon-main' viewBox="0 0 20 20">
        <path d="M0.414747 9.83945L8.93886 0.818743L9.51022 0.213781C9.64041 0.0768506 9.81646 0 9.99996 0C10.1835 0 10.3595 0.0768506 10.4897 0.213781L19.5852 9.83945C19.7186 9.98014 19.824 10.1477 19.8952 10.3322C19.9665 10.5168 20.0021 10.7146 19.9999 10.9139C19.9911 11.7361 19.3447 12.3924 18.5682 12.3924H17.6306V20H2.36929V12.3924H1.41187C1.03464 12.3924 0.679472 12.2359 0.412542 11.9533C0.281107 11.8146 0.176968 11.6496 0.106155 11.468C0.0353432 11.2864 -0.000732422 11.0917 1.33514e-05 10.8952C1.33514e-05 10.4981 0.147818 10.1221 0.414747 9.83945ZM8.76458 18.3183H11.2353V13.5533H8.76458V18.3183ZM3.95764 10.7107V18.3183H7.35272V12.9927C7.35272 12.4765 7.7476 12.0584 8.23513 12.0584H11.7648C12.2523 12.0584 12.6472 12.4765 12.6472 12.9927V18.3183H16.0423V10.7107H18.1601L9.99776 2.07538L9.48816 2.61494L1.83764 10.7107H3.95764Z"/>
    </symbol>

    <symbol id='icon-list' viewBox="0 0 24 24">
        <path fill-rule="evenodd" clip-rule="evenodd" d="M3.75 18C3.75 17.8011 3.82902 17.6103 3.96967 17.4697C4.11032 17.329 4.30109 17.25 4.5 17.25H19.5C19.6989 17.25 19.8897 17.329 20.0303 17.4697C20.171 17.6103 20.25 17.8011 20.25 18C20.25 18.1989 20.171 18.3897 20.0303 18.5303C19.8897 18.671 19.6989 18.75 19.5 18.75H4.5C4.30109 18.75 4.11032 18.671 3.96967 18.5303C3.82902 18.3897 3.75 18.1989 3.75 18ZM3.75 12C3.75 11.8011 3.82902 11.6103 3.96967 11.4697C4.11032 11.329 4.30109 11.25 4.5 11.25H19.5C19.6989 11.25 19.8897 11.329 20.0303 11.4697C20.171 11.6103 20.25 11.8011 20.25 12C20.25 12.1989 20.171 12.3897 20.0303 12.5303C19.8897 12.671 19.6989 12.75 19.5 12.75H4.5C4.30109 12.75 4.11032 12.671 3.96967 12.5303C3.82902 12.3897 3.75 12.1989 3.75 12ZM3.75 6C3.75 5.80109 3.82902 5.61032 3.96967 5.46967C4.11032 5.32902 4.30109 5.25 4.5 5.25H19.5C19.6989 5.25 19.8897 5.32902 20.0303 5.46967C20.171 5.61032 20.25 5.80109 20.25 6C20.25 6.19891 20.171 6.38968 20.0303 6.53033C19.8897 6.67098 19.6989 6.75 19.5 6.75H4.5C4.30109 6.75 4.11032 6.67098 3.96967 6.53033C3.82902 6.38968 3.75 6.19891 3.75 6Z"/>
    </symbol>
    
    <symbol id='icon-tiled' viewBox="0 0 24 24">
        <path d="M6 4H18C18.5304 4 19.0391 4.21071 19.4142 4.58579C19.7893 4.96086 20 5.46957 20 6V18C20 18.5304 19.7893 19.0391 19.4142 19.4142C19.0391 19.7893 18.5304 20 18 20H6C5.46957 20 4.96086 19.7893 4.58579 19.4142C4.21071 19.0391 4 18.5304 4 18V6C4 5.46957 4.21071 4.96086 4.58579 4.58579C4.96086 4.21071 5.46957 4 6 4ZM13 13V18H18V13H13ZM6 13V18H11V13H6ZM13 6V11H18V6H13ZM6 6V11H11V6H6Z"/>
    </symbol>

    <symbol id='icon-tasks' viewBox="0 0 20 20">
        <g clip-path="url(#clip0_104_66)">
            <path d="M17.9168 3.33333H16.1112V4.44445H17.7779V16.6667H2.22234V4.44445H3.889V3.33333H2.08345C1.95358 3.3355 1.82541 3.36324 1.70626 3.41495C1.58712 3.46666 1.47932 3.54134 1.38904 3.63472C1.29876 3.7281 1.22775 3.83834 1.18009 3.95917C1.13242 4.07999 1.10902 4.20902 1.11123 4.33889V16.7722C1.10902 16.9021 1.13242 17.0311 1.18009 17.1519C1.22775 17.2728 1.29876 17.383 1.38904 17.4764C1.47932 17.5698 1.58712 17.6445 1.70626 17.6962C1.82541 17.7479 1.95358 17.7756 2.08345 17.7778H17.9168C18.0466 17.7756 18.1748 17.7479 18.294 17.6962C18.4131 17.6445 18.5209 17.5698 18.6112 17.4764C18.7015 17.383 18.7725 17.2728 18.8201 17.1519C18.8678 17.0311 18.8912 16.9021 18.889 16.7722V4.33889C18.8912 4.20902 18.8678 4.07999 18.8201 3.95917C18.7725 3.83834 18.7015 3.7281 18.6112 3.63472C18.5209 3.54134 18.4131 3.46666 18.294 3.41495C18.1748 3.36324 18.0466 3.3355 17.9168 3.33333Z"/>
            <path d="M4.44434 7.77778H5.55545V8.88889H4.44434V7.77778Z"/>
            <path d="M7.77783 7.77778H8.88894V8.88889H7.77783V7.77778Z"/>
            <path d="M11.1111 7.77778H12.2222V8.88889H11.1111V7.77778Z"/>
            <path d="M14.4443 7.77778H15.5554V8.88889H14.4443V7.77778Z"/>
            <path d="M4.44434 10.5556H5.55545V11.6667H4.44434V10.5556Z"/>
            <path d="M7.77783 10.5556H8.88894V11.6667H7.77783V10.5556Z"/>
            <path d="M11.1111 10.5556H12.2222V11.6667H11.1111V10.5556Z"/>
            <path d="M14.4443 10.5556H15.5554V11.6667H14.4443V10.5556Z"/>
            <path d="M4.44434 13.3333H5.55545V14.4444H4.44434V13.3333Z"/>
            <path d="M7.77783 13.3333H8.88894V14.4444H7.77783V13.3333Z"/>
            <path d="M11.1111 13.3333H12.2222V14.4444H11.1111V13.3333Z"/>
            <path d="M14.4443 13.3333H15.5554V14.4444H14.4443V13.3333Z"/>
            <path d="M5.55556 5.55556C5.7029 5.55556 5.84421 5.49702 5.94839 5.39284C6.05258 5.28865 6.11111 5.14734 6.11111 5V1.66667C6.11111 1.51932 6.05258 1.37802 5.94839 1.27383C5.84421 1.16964 5.7029 1.11111 5.55556 1.11111C5.40821 1.11111 5.26691 1.16964 5.16272 1.27383C5.05853 1.37802 5 1.51932 5 1.66667V5C5 5.14734 5.05853 5.28865 5.16272 5.39284C5.26691 5.49702 5.40821 5.55556 5.55556 5.55556Z"/>
            <path d="M14.4445 5.55556C14.5918 5.55556 14.7331 5.49702 14.8373 5.39284C14.9415 5.28865 15 5.14734 15 5V1.66667C15 1.51932 14.9415 1.37802 14.8373 1.27383C14.7331 1.16964 14.5918 1.11111 14.4445 1.11111C14.2971 1.11111 14.1558 1.16964 14.0516 1.27383C13.9474 1.37802 13.8889 1.51932 13.8889 1.66667V5C13.8889 5.14734 13.9474 5.28865 14.0516 5.39284C14.1558 5.49702 14.2971 5.55556 14.4445 5.55556Z"/>
            <path d="M7.22217 3.33333H12.7777V4.44445H7.22217V3.33333Z"/>
        </g>
    </symbol>

    <symbol id='icon-admin' viewBox="0 0 20 20">
        <path d="M18 12h-2.18c-.17.7-.44 1.35-.81 1.93l1.54 1.54-2.1 2.1-1.54-1.54c-.58.36-1.23.63-1.91.79V19H8v-2.18c-.68-.16-1.33-.43-1.91-.79l-1.54 1.54-2.12-2.12 1.54-1.54c-.36-.58-.63-1.23-.79-1.91H1V9.03h2.17c.16-.7.44-1.35.8-1.94L2.43 5.55l2.1-2.1 1.54 1.54c.58-.37 1.24-.64 1.93-.81V2h3v2.18c.68.16 1.33.43 1.91.79l1.54-1.54 2.12 2.12-1.54 1.54c.36.59.64 1.24.8 1.94H18V12zm-8.5 1.5c1.66 0 3-1.34 3-3s-1.34-3-3-3-3 1.34-3 3 1.34 3 3 3z">
        </path>
    </symbol>

</svg>

